<svg id="Group_37904" data-name="Group 37904" xmlns="http://www.w3.org/2000/svg" xmlns:xlink="http://www.w3.org/1999/xlink" width="120.399" height="88.446" viewBox="0 0 120.399 88.446">
  <defs>
    <clipPath id="clip-path">
      <rect id="Rectangle_8662" data-name="Rectangle 8662" width="120.399" height="88.446" fill="none"/>
    </clipPath>
  </defs>
  <g id="Group_37904-2" data-name="Group 37904" clip-path="url(#clip-path)">
    <path id="Path_51052" data-name="Path 51052" d="M1.423,151.99a1.922,1.922,0,0,0,.819.671,6.685,6.685,0,0,0,1.272.468q.689.181,1.376.347a7.624,7.624,0,0,1,1.254.413,1.8,1.8,0,0,1,.789.571,1.692,1.692,0,0,1,.306.881,1.587,1.587,0,0,1-.21.859,2.293,2.293,0,0,1-.723.745,4.2,4.2,0,0,1-1.195.546,5.887,5.887,0,0,1-2.932.07A3.75,3.75,0,0,1,0,156.379l.8-.583a1.558,1.558,0,0,0,.206.391,3.433,3.433,0,0,0,1.711,1.154,3.421,3.421,0,0,0,2.065-.012,1.851,1.851,0,0,0,1.106-.715,1.876,1.876,0,0,0,.384-1.261.958.958,0,0,0-.417-.7q-.2-.14-.365-.24A2.751,2.751,0,0,0,5,154.206c-.216-.07-.391-.126-.524-.166s-.329-.093-.59-.162a.466.466,0,0,0-.066-.018c-.015,0-.035-.008-.059-.015l-.066-.019q-.531-.14-.845-.236t-.767-.262a5.19,5.19,0,0,1-.731-.321,2.974,2.974,0,0,1-.531-.383,1.505,1.505,0,0,1-.373-.487,1.85,1.85,0,0,1,.1-1.833,2.847,2.847,0,0,1,1.722-1.2,6.563,6.563,0,0,1,1.976-.2,5.574,5.574,0,0,1,1.833.409,3.242,3.242,0,0,1,1.3.907l-.8.583a1.761,1.761,0,0,0-.214-.4,3.355,3.355,0,0,0-1.711-1.158,3.441,3.441,0,0,0-2.065.015,2.325,2.325,0,0,0-1.058.668,1.553,1.553,0,0,0-.409.97,2.021,2.021,0,0,0,.3,1.084" transform="translate(0 -73.936)" fill="#fff"/>
    <path id="Path_51053" data-name="Path 51053" d="M32.365,148.884a3.916,3.916,0,0,1,2.574.877l-.546.959a1.946,1.946,0,0,0-.715-1.184,1.915,1.915,0,0,0-1.313-.431,3.078,3.078,0,0,0-2.891,3.12v5.251l.819.222h-2.6l.855-.222v-8.37l-.855-.221h1.748v1.932a3.089,3.089,0,0,1,2.928-1.932" transform="translate(-13.749 -73.927)" fill="#fff"/>
    <path id="Path_51054" data-name="Path 51054" d="M62.673,153.266a3.838,3.838,0,0,1-.487,2.692,3.584,3.584,0,0,1-1.1,1.091,3.714,3.714,0,0,1-1.453.546,3.771,3.771,0,0,1-4.137-2.36,4.761,4.761,0,0,1,1.335-5.6,3.389,3.389,0,0,1,1.977-.752,3.443,3.443,0,0,1,2.574.885l-.553.959a1.969,1.969,0,0,0-.712-1.187,1.891,1.891,0,0,0-1.309-.435,2.672,2.672,0,0,0-1.49.443,3.082,3.082,0,0,0-1.08,1.345,4.621,4.621,0,0,0-.369,1.922,5.812,5.812,0,0,0,.41,2.072,3.889,3.889,0,0,0,1.689,2.106,3.105,3.105,0,0,0,2.382.254,3.251,3.251,0,0,0,1.711-1.357,4.376,4.376,0,0,0,.612-2.618" transform="translate(-27.352 -73.921)" fill="#fff"/>
    <path id="Path_51055" data-name="Path 51055" d="M101.583,145.8h2.6l-.855.221v9.764a3.743,3.743,0,0,1-.83,2.555,2.983,2.983,0,0,1-2.371.948,3.913,3.913,0,0,1-2.574-.885l.553-.959a1.954,1.954,0,0,0,.711,1.184,1.9,1.9,0,0,0,1.309.431,1.98,1.98,0,0,0,1.711-.778,3.405,3.405,0,0,0,.568-2.054V146.022Zm2.068-1.287a1.038,1.038,0,0,1-.763.313,1.051,1.051,0,0,1-.767-.313,1.077,1.077,0,0,1,0-1.527,1.053,1.053,0,0,1,.767-.313,1.079,1.079,0,0,1,.763,1.84" transform="translate(-48.441 -70.844)" fill="#fff"/>
    <path id="Path_51056" data-name="Path 51056" d="M130.733,155.905a4.2,4.2,0,0,0,.634-2.308,3.723,3.723,0,0,1-.516,2.382,3.5,3.5,0,0,1-1.7,1.46v.008c-.034.01-.086.024-.155.04a.921.921,0,0,1-.118.026c-.123.044-.243.081-.361.11v-.015a3.871,3.871,0,0,1-2.588-.417,3.831,3.831,0,0,1-1.763-1.936,4.768,4.768,0,0,1-.226-3.278,4.76,4.76,0,0,1,.742-1.468,4.6,4.6,0,0,1,1.239-1.154,3.621,3.621,0,0,1,4.347.668,3.662,3.662,0,0,1,.823,1.331,6.481,6.481,0,0,1,.317,1.136,2.441,2.441,0,0,0-1.814-.568,4.075,4.075,0,0,0-1.667.693,6.43,6.43,0,0,1-1.689.8,2.047,2.047,0,0,1-.87.048,1.909,1.909,0,0,1-.8-.328,5.922,5.922,0,0,0,.383,1.763,3.892,3.892,0,0,0,1.689,2.106,3.1,3.1,0,0,0,2.382.254,3.3,3.3,0,0,0,1.719-1.357m-4.646-6.416a3.845,3.845,0,0,0-1.261,1.615,3.793,3.793,0,0,0-.265,2.035,1.876,1.876,0,0,0,1.659.221,6.158,6.158,0,0,0,1.637-.84,4.153,4.153,0,0,1,1.718-.767,1.855,1.855,0,0,1,.575.015,5.077,5.077,0,0,0-1.092-1.725,2.827,2.827,0,0,0-1.442-.841,2.137,2.137,0,0,0-1.53.287" transform="translate(-61.446 -73.942)" fill="#fff"/>
    <path id="Path_51057" data-name="Path 51057" d="M166.007,145.309a4,4,0,0,0-1.46,2.1l-2.64,8-3.135-7.53-2.478,7.53-3.569-8.584-.73-.222h2.6l-.8.222,2.817,6.851,2.035-6.1-.31-.752-.634-.222h2.6l-.907.222,2.817,6.851,2.22-6.638a3.876,3.876,0,0,1,1.468-1.866,4.706,4.706,0,0,1,2.529-.87,4.775,4.775,0,0,1,2.6.575,3.9,3.9,0,0,1,1.755,1.954,3.859,3.859,0,0,0-1.785-1.91,4.671,4.671,0,0,0-2.559-.508,4.5,4.5,0,0,0-2.434.892m1.431,5.819a1.933,1.933,0,0,1-.878.048,2,2,0,0,1-.8-.328,5.681,5.681,0,0,0,.391,1.763,4.655,4.655,0,0,0,.745,1.3,3.194,3.194,0,0,0,.973.815,3.291,3.291,0,0,0,1.129.347,2.991,2.991,0,0,0,1.224-.111,3.251,3.251,0,0,0,1.711-1.35,4.186,4.186,0,0,0,.641-2.308,3.722,3.722,0,0,1-.516,2.382,3.511,3.511,0,0,1-1.711,1.452v.008c-.044.015-.132.039-.265.074a3.457,3.457,0,0,1-.369.1v-.008a3.96,3.96,0,0,1-4.344-2.353,4.67,4.67,0,0,1-.406-1.645,4.635,4.635,0,0,1,.922-3.108,4.584,4.584,0,0,1,1.239-1.154,3.537,3.537,0,0,1,1.5-.432,3.65,3.65,0,0,1,1.546.24,3.578,3.578,0,0,1,1.3.866,3.662,3.662,0,0,1,.823,1.331,6.439,6.439,0,0,1,.317,1.136,2.464,2.464,0,0,0-1.821-.568,4.069,4.069,0,0,0-1.666.693,6.179,6.179,0,0,1-1.682.8m-1.682-.28a1.89,1.89,0,0,0,1.667.221,6.147,6.147,0,0,0,1.637-.84,4.224,4.224,0,0,1,1.711-.775,1.757,1.757,0,0,1,.575.022,5.087,5.087,0,0,0-1.091-1.725,2.861,2.861,0,0,0-1.442-.845,2.125,2.125,0,0,0-1.53.284,3.9,3.9,0,0,0-1.526,3.658" transform="translate(-75.472 -71.65)" fill="#fff"/>
    <path id="Path_51058" data-name="Path 51058" d="M208.033,139.834v13.038l.855.221h-2.6l.856-.221V139.834l-.856-.221h2.6Z" transform="translate(-102.43 -69.324)" fill="#fff"/>
    <path id="Path_51059" data-name="Path 51059" d="M225.905,151.99a1.922,1.922,0,0,0,.819.671,6.685,6.685,0,0,0,1.272.468q.689.181,1.376.347a7.625,7.625,0,0,1,1.254.413,1.8,1.8,0,0,1,.789.571,1.692,1.692,0,0,1,.306.881,1.587,1.587,0,0,1-.21.859,2.293,2.293,0,0,1-.723.745,4.2,4.2,0,0,1-1.195.546,5.887,5.887,0,0,1-2.932.07,3.751,3.751,0,0,1-2.179-1.184l.8-.583a1.558,1.558,0,0,0,.206.391,3.5,3.5,0,0,0,3.776,1.143,1.851,1.851,0,0,0,1.106-.715,1.877,1.877,0,0,0,.384-1.261.958.958,0,0,0-.417-.7q-.2-.14-.365-.24a2.751,2.751,0,0,0-.494-.207c-.216-.07-.391-.126-.524-.166s-.329-.093-.59-.162a.464.464,0,0,0-.066-.018c-.015,0-.035-.008-.059-.015l-.066-.019q-.531-.14-.845-.236t-.767-.262a5.188,5.188,0,0,1-.73-.321,2.974,2.974,0,0,1-.531-.383,1.505,1.505,0,0,1-.373-.487,1.85,1.85,0,0,1,.1-1.833,2.847,2.847,0,0,1,1.722-1.2,6.563,6.563,0,0,1,1.976-.2,5.574,5.574,0,0,1,1.833.409,3.242,3.242,0,0,1,1.3.907l-.8.583a1.759,1.759,0,0,0-.214-.4,3.355,3.355,0,0,0-1.711-1.158,3.441,3.441,0,0,0-2.065.015,2.325,2.325,0,0,0-1.058.668,1.554,1.554,0,0,0-.409.97,2.022,2.022,0,0,0,.295,1.084" transform="translate(-111.465 -73.936)" fill="#fff"/>
    <path id="Path_51060" data-name="Path 51060" d="M26.33,122.446s.427.139.427-.238-.636-.6-.944-.04.517,1.392,1.332.835a1.215,1.215,0,0,0-.994-2.137c-1.531.179-4.433,2.823-6.162,3.508s-4.411,1.575-5.775-.02c0,0,1.233,2.048,4.314,1.232,0,0-2.266,2.087-4.215.855s-1.839-3.846-.069-4.632c0,0-.33,1.039,1,.813s.251-2.289-1.761-1.182-2.289,5.055.981,5.684,4.778-1.761,5.659-2.339a4.976,4.976,0,0,1,3.7-.3,3.556,3.556,0,0,0-2.056-.519,3.246,3.246,0,0,1,3.009-.019,1.875,1.875,0,0,1,.689,2.669s-.1-.434-.585-.217a.461.461,0,0,0,.151.9c.528.076,1.255-.537,1.056-1.858a2.633,2.633,0,0,0-2.056-2.235,3.467,3.467,0,0,1,1.462-.038,2.883,2.883,0,0,0-2.546-.207,9.739,9.739,0,0,1,3.15-1.66c1.207-.17,1.367.915.953,1.292s-.717-.142-.717-.142" transform="translate(-5.951 -60.009)" fill="#fff"/>
    <path id="Path_51061" data-name="Path 51061" d="M197.423,122.446s-.427.139-.427-.238.636-.6.944-.04-.517,1.392-1.332.835a1.215,1.215,0,0,1,.994-2.137c1.53.179,4.433,2.823,6.162,3.508s4.411,1.575,5.775-.02c0,0-1.233,2.048-4.314,1.232,0,0,2.266,2.087,4.215.855s1.839-3.846.069-4.632c0,0,.33,1.039-1,.813s-.251-2.289,1.761-1.182,2.289,5.055-.981,5.684-4.778-1.761-5.659-2.339a4.976,4.976,0,0,0-3.7-.3,3.557,3.557,0,0,1,2.056-.519,3.246,3.246,0,0,0-3.009-.019,1.875,1.875,0,0,0-.689,2.669s.1-.434.585-.217a.461.461,0,0,1-.151.9c-.528.076-1.255-.537-1.056-1.858a2.633,2.633,0,0,1,2.056-2.235,3.467,3.467,0,0,0-1.462-.038,2.883,2.883,0,0,1,2.546-.207,9.739,9.739,0,0,0-3.15-1.66c-1.207-.17-1.367.915-.953,1.292s.717-.142.717-.142" transform="translate(-97.402 -60.009)" fill="#fff"/>
    <path id="Path_51062" data-name="Path 51062" d="M120.392,13.212a4.78,4.78,0,0,0-1.968-1.951c-.105-.058-.213-.11-.322-.16-.054-.026-.109-.048-.165-.071L117.855,11l-.041-.017-.065-.024-.141-.049c-.071-.023-.151-.048-.215-.065q-.191-.052-.386-.087a4.14,4.14,0,0,0-1.532.015,3.343,3.343,0,0,0-2.225,1.47,2.945,2.945,0,0,0-.256.551c-.008.024-.016.047-.024.07l-.006.017c-.035.107-.011.033-.019.058l0,.006-.006.025-.023.1c0,.008,0,.016-.006.024s-.006.031-.008.046c-.005.033-.011.065-.016.1-.01.064-.019.132-.023.193a2.528,2.528,0,0,0,.049.638,2.621,2.621,0,0,0,.206.58A2.686,2.686,0,0,0,114.751,16l.255.067.079.007.043,0,.072.01.14.014c.044,0,.08,0,.119,0a1.422,1.422,0,0,0,.22-.018,1.813,1.813,0,0,0,.7-.258,1.3,1.3,0,0,0,.384-.38,1.032,1.032,0,0,0,.155-.335.982.982,0,0,0,.031-.216c0-.048,0-.073,0-.073v0a.177.177,0,0,0-.173-.169.172.172,0,0,0-.137.053l-.036.041a.954.954,0,0,1-.111.105,1.041,1.041,0,0,1-.492.209.865.865,0,0,1-.348-.02.617.617,0,0,1-.158-.055l-.118-.053-.009,0,0,0c.049.016.012,0,.022.007l-.012-.008-.024-.016-.048-.031a1.54,1.54,0,0,1-.334-.313,1.18,1.18,0,0,1-.2-.415.923.923,0,0,1-.008-.452l.014-.036a.443.443,0,0,1,.016-.051l.032-.095.009-.024,0-.006c0,.013.013-.037-.009.027l0-.008.015-.033a1.517,1.517,0,0,1,.145-.25,1.746,1.746,0,0,1,1.052-.66,1.923,1.923,0,0,1,.7-.008,1.817,1.817,0,0,1,.178.039l.072.021c.025.007.079.027.117.04l.083.033c.033.014.065.026.1.041.064.029.127.059.188.092a3.059,3.059,0,0,1,1.2,1.116,2.577,2.577,0,0,1,.366,1.507,2.244,2.244,0,0,1-.055.376c-.013.065-.03.114-.043.169l-.038.108-.019.054,0,.011-.01.025c-2.229,5.666-10.154,2.14-10.275-2.448.922-.723,1.854-1.437,2.805-2.135q-.394-2.42-.9-4.845-1.985,1.48-3.885,3.03.356,1.651.659,3.3c-.29.57-1.11,1.461-3.4,1.461a10.883,10.883,0,0,1-1.229-.075,4.778,4.778,0,0,1-4.361-3.852q1.38-2.292,2.846-4.553Q99.357,3.013,97.439,0h0Q95.52,3.012,93.751,6.074q1.466,2.261,2.846,4.553a4.78,4.78,0,0,1-4.362,3.852A10.882,10.882,0,0,1,91,14.553c-2.293,0-3.112-.89-3.4-1.461q.3-1.649.66-3.3-1.9-1.549-3.885-3.03-.5,2.424-.9,4.845c.951.7,1.883,1.412,2.805,2.135-.121,4.588-8.046,8.114-10.276,2.448L76,16.166l0-.011-.02-.054-.038-.108c-.014-.055-.03-.1-.044-.169a2.354,2.354,0,0,1-.055-.376,2.581,2.581,0,0,1,.367-1.507,3.057,3.057,0,0,1,1.2-1.116c.061-.033.124-.063.189-.092.031-.015.064-.028.1-.041l.083-.033c.038-.013.092-.034.116-.04l.072-.021q.089-.024.178-.039a1.925,1.925,0,0,1,.7.008,1.748,1.748,0,0,1,1.052.66,1.52,1.52,0,0,1,.145.25l.015.033,0,.008c-.022-.064,0-.015-.009-.027l0,.006.008.024c.011.032.022.063.033.095a.448.448,0,0,1,.016.051l.014.036a.929.929,0,0,1-.008.452,1.188,1.188,0,0,1-.2.415,1.54,1.54,0,0,1-.334.313l-.048.031-.024.016-.012.008c.01,0-.027.01.022-.007l0,0-.009,0-.118.053a.605.605,0,0,1-.157.055.865.865,0,0,1-.348.02,1.041,1.041,0,0,1-.492-.209.952.952,0,0,1-.111-.105l-.036-.041a.172.172,0,0,0-.137-.053.177.177,0,0,0-.173.169v0s0,.025,0,.073a.982.982,0,0,0,.031.216,1.039,1.039,0,0,0,.154.335,1.3,1.3,0,0,0,.384.38,1.811,1.811,0,0,0,.7.258,1.434,1.434,0,0,0,.221.018c.039,0,.075,0,.118,0l.141-.014.072-.01.042,0,.079-.007L80.126,16a2.684,2.684,0,0,0,1.633-1.359,2.6,2.6,0,0,0,.206-.58,2.529,2.529,0,0,0,.049-.638c0-.06-.014-.128-.023-.193-.005-.032-.011-.065-.016-.1l-.009-.046-.005-.024-.023-.1c0-.008,0-.016-.006-.025v-.006l-.019-.058-.006-.017-.024-.07a2.944,2.944,0,0,0-.256-.551,3.343,3.343,0,0,0-2.225-1.47,4.143,4.143,0,0,0-1.533-.015c-.129.023-.258.052-.386.087-.064.017-.144.042-.215.065l-.141.049-.065.024L77.022,11l-.083.034c-.055.023-.111.045-.165.071-.109.049-.216.1-.322.16a4.78,4.78,0,0,0-1.969,1.951,3.992,3.992,0,0,0-.455,2.509c1.2,7.271,11.628,6.514,13.815.118a7.141,7.141,0,0,0,3.16.64,12.788,12.788,0,0,0,1.427-.085,6.478,6.478,0,0,0,5.006-2.95,6.478,6.478,0,0,0,5.006,2.95,12.785,12.785,0,0,0,1.427.085,7.142,7.142,0,0,0,3.161-.64c2.186,6.4,12.616,7.153,13.814-.118a3.992,3.992,0,0,0-.455-2.509" transform="translate(-36.736 0)" fill="#fff"/>
    <path id="Path_51063" data-name="Path 51063" d="M124.154,90.3h-9.023l-2.089-3.583-8.584-14.724-2.275-3.922-.905-1.56h10.047a3.809,3.809,0,0,0,1.077-.154,3.72,3.72,0,0,0,.853-.365,3.853,3.853,0,0,0,1.925-3.177c0-.054,0-.109,0-.165v-.1a3.859,3.859,0,0,0-3.86-3.858H96.743l-4.358-7.51-.195-.335h19.082a11.758,11.758,0,0,1,11.765,11.735v.03a11.77,11.77,0,0,1-8.407,11.279l1.028,1.76.194.332,2.754,4.749Z" transform="translate(-45.776 -25.249)" fill="#fff"/>
    <path id="Path_51064" data-name="Path 51064" d="M165.236,113.869A19.63,19.63,0,0,1,153.91,118.5l-4.922-8.484a11.735,11.735,0,0,0,11.182-2.351Z" transform="translate(-73.979 -53.46)" fill="#fff"/>
    <path id="Path_51065" data-name="Path 51065" d="M150.724,63.641q-.218-.455-.472-.888.254.433.472.888" transform="translate(-74.607 -31.16)" fill="#fff"/>
    <path id="Path_51066" data-name="Path 51066" d="M149.167,61.091q-.185-.278-.386-.544.2.267.386.544" transform="translate(-73.876 -30.064)" fill="#fff"/>
    <path id="Path_51067" data-name="Path 51067" d="M151.724,65.75q-.119-.317-.255-.625.136.308.255.625" transform="translate(-75.211 -32.337)" fill="#fff"/>
    <path id="Path_51068" data-name="Path 51068" d="M148.372,60.035q-.2-.267-.415-.521.215.254.415.521" transform="translate(-73.467 -29.551)" fill="#fff"/>
    <path id="Path_51069" data-name="Path 51069" d="M149.838,50.848a19.722,19.722,0,0,0-5.851.884,13.1,13.1,0,0,1,5.389,6.818c.036.1.067.208.1.311.12,0,.24-.007.361-.007a11.676,11.676,0,0,1,7.822,2.993l.015.013,5.748-5.588a19.662,19.662,0,0,0-13.585-5.424" transform="translate(-71.496 -25.248)" fill="#fff"/>
    <path id="Path_51070" data-name="Path 51070" d="M87.717,78.426A11.548,11.548,0,0,1,81.708,88.44c-3.888,2.239-9.639,2.2-13.9,1.328a19.6,19.6,0,0,1-9.251-4.324c1.683-2.056,3.367-3.847,5.05-5.9,3.664,2.724,10.9,5.338,14.739,1.494a3.923,3.923,0,0,0,.033-5.514c-.09-.086-.15-.143-.234-.22a3.9,3.9,0,0,0-2.574-.963H69.583l-.08-.008a11.656,11.656,0,0,1-4.352-1.288,11.767,11.767,0,0,1,5.622-22.191h2.674a.012.012,0,0,1,.011.006l.383.66.195.335L78,58.676a.012.012,0,0,1-.011.018H70.31a3.871,3.871,0,0,0-3.87,3.871v.086A3.859,3.859,0,0,0,70.3,66.51H82.534c.005,0,.009,0,.011.005l.383.66.905,1.559L85.21,71.11l.9,1.546a10.9,10.9,0,0,1,1.212,2.715,11.678,11.678,0,0,1,.4,3.055" transform="translate(-29.075 -25.249)" fill="#fff"/>
    <rect id="Rectangle_8661" data-name="Rectangle 8661" width="3.688" height="3.688" transform="translate(58.095 20.869) rotate(-45)" fill="#fff"/>
  </g>
</svg>
