<svg xmlns="http://www.w3.org/2000/svg" xmlns:xlink="http://www.w3.org/1999/xlink" width="72" height="72" viewBox="0 0 72 72">
  <defs>
    <clipPath id="clip-path">
      <rect id="Rectangle_10" data-name="Rectangle 10" width="36.904" height="42.423" fill="#fff"/>
    </clipPath>
  </defs>
  <g id="Group_37905" data-name="Group 37905" transform="translate(-241 -2269)">
    <circle id="Ellipse_4" data-name="Ellipse 4" cx="36" cy="36" r="36" transform="translate(241 2269)" fill="#a5a5a5"/>
    <g id="Group_41" data-name="Group 41" transform="translate(258.548 2283.789)">
      <g id="Group_40" data-name="Group 40" clip-path="url(#clip-path)">
        <path id="Path_31" data-name="Path 31" d="M38.68,63.706c1.89,0,3.779.006,5.669-.006a.961.961,0,0,1,.735.3q2.1,2.1,4.2,4.2c.786.788,1.565,1.584,2.351,2.373.217.217.448.42.673.629a.592.592,0,0,1,.024.855c-.6.609-1.192,1.218-1.795,1.821q-5.147,5.151-10.3,10.3a15.538,15.538,0,0,0-1.19,1.186.669.669,0,0,1-.837-.016c-1.122-1.211-2.325-2.343-3.485-3.517-1.836-1.857-3.69-3.7-5.536-5.542q-1.678-1.678-3.357-3.355c-.278-.276-.57-.538-.851-.81A.657.657,0,0,1,25,71.173c.309-.257.575-.554.858-.835q3.168-3.154,6.332-6.313a1.019,1.019,0,0,1,.776-.323c1.9.01,3.81,0,5.715,0m-.034,8.507H34.174c-.559,0-.559,0-.33.513q1.392,3.125,2.784,6.25c.636,1.432,1.265,2.867,1.9,4.3.029.065.035.17.13.168.064,0,.075-.089.1-.143.779-1.679,1.511-3.379,2.249-5.075.833-1.915,1.772-3.784,2.522-5.735.106-.277.116-.277-.181-.277h-4.7m9.017-1.132h0q1.3,0,2.6,0c.073,0,.175.037.212-.042s-.063-.127-.115-.176c-.277-.266-.565-.52-.837-.791q-2.5-2.49-4.983-4.989a.794.794,0,0,0-.613-.248c-1.183.005-2.366,0-3.549.006-.145,0-.353-.083-.423.062-.057.117.152.2.22.322a.194.194,0,0,0,.014.019q2.243,2.808,4.484,5.618a.547.547,0,0,0,.474.224c.837-.008,1.675,0,2.512,0m-18.032,0h2.58a.412.412,0,0,0,.365-.146q1.44-1.811,2.892-3.614c.616-.765,1.239-1.525,1.857-2.288.036-.045.1-.087.075-.156s-.094-.041-.145-.041q-1.981,0-3.962,0a.634.634,0,0,0-.469.205Q31.2,66.679,29.566,68.3l-2.591,2.588c-.046.046-.146.071-.114.15s.124.039.189.039c.86,0,1.72,0,2.58,0M40.5,82.248c.058.008.078-.043.107-.074.509-.534,1.042-1.043,1.565-1.562Q46.3,76.519,50.4,72.4c.042-.042.117-.08.095-.145s-.106-.044-.164-.044c-1.736,0-3.473,0-5.209,0a.275.275,0,0,0-.294.2c-.111.286-.223.574-.357.849-.626,1.285-1.168,2.607-1.754,3.91-.453,1.008-.867,2.035-1.34,3.034-.3.632-.522,1.3-.851,1.916a.13.13,0,0,0-.018.131M26.834,72.228,36.79,82.28a.2.2,0,0,0-.022-.187c-.243-.64-.594-1.232-.848-1.866-.575-1.433-1.233-2.83-1.871-4.233-.533-1.174-.976-2.389-1.575-3.534a.366.366,0,0,0-.374-.25c-1.675.008-3.35,0-5.024.005a.623.623,0,0,0-.242.014M38.64,71.082q2.235,0,4.47,0c.072,0,.168.034.205-.055.027-.064-.046-.106-.084-.153q-2.2-2.723-4.4-5.446c-.165-.2-.2-.211-.357-.009-.426.564-.882,1.1-1.319,1.657-.994,1.259-2.02,2.493-3.031,3.739-.055.068-.165.134-.121.227s.154.039.234.039q2.2,0,4.4,0" transform="translate(-20.197 -51.907)" fill="#fff"/>
        <path id="Path_32" data-name="Path 32" d="M.668,155.519a.6.6,0,0,1-.586-.4.541.541,0,0,1,.262-.65c.328-.213.658-.424,1-.618q2.007-1.148,4.02-2.284a.637.637,0,0,1,.459-.106.579.579,0,0,1,.454.466.52.52,0,0,1-.263.567c-.617.372-1.235.745-1.86,1.1-1.038.6-2.081,1.18-3.124,1.767a.913.913,0,0,1-.36.149" transform="translate(-0.042 -123.416)" fill="#fff"/>
        <path id="Path_33" data-name="Path 33" d="M171.869,56.457a.678.678,0,0,1-.368.5c-.318.216-.675.365-1,.568-.911.569-1.835,1.116-2.777,1.632-.4.221-.806.444-1.212.66a.552.552,0,0,1-.8-.2.534.534,0,0,1,.235-.781c1.472-.841,2.91-1.74,4.405-2.538.237-.126.465-.27.707-.385a.564.564,0,0,1,.805.538" transform="translate(-134.967 -45.52)" fill="#fff"/>
        <path id="Path_34" data-name="Path 34" d="M137.162,180.559a.614.614,0,0,1,.493.347c.576,1.006,1.15,2.014,1.736,3.014.342.583.688,1.163,1.007,1.759a3.4,3.4,0,0,1,.163.33.528.528,0,0,1-.241.708.513.513,0,0,1-.707-.18c-.2-.3-.377-.615-.558-.928q-1.147-1.985-2.289-3.973a2.628,2.628,0,0,1-.167-.328.558.558,0,0,1,.563-.75" transform="translate(-111.278 -147.132)" fill="#fff"/>
        <path id="Path_35" data-name="Path 35" d="M41.462,14.926a.632.632,0,0,1,.6.38c.306.524.607,1.051.91,1.577q.9,1.568,1.8,3.138a2.844,2.844,0,0,1,.172.352.545.545,0,0,1-.241.71.516.516,0,0,1-.721-.2c-.192-.3-.362-.606-.539-.912q-1.2-2.074-2.4-4.151a.558.558,0,0,1,.418-.9" transform="translate(-33.363 -12.163)" fill="#fff"/>
        <path id="Path_36" data-name="Path 36" d="M140.056,14.948a.562.562,0,0,1,.5.8c-.153.309-.34.6-.514.9q-1.167,2.014-2.334,4.027a2.289,2.289,0,0,1-.174.271.537.537,0,0,1-.721.138.521.521,0,0,1-.207-.681c.263-.521.524-1.045.83-1.541q.913-1.482,1.744-3.01a7.119,7.119,0,0,1,.382-.6.586.586,0,0,1,.489-.3" transform="translate(-111.275 -12.181)" fill="#fff"/>
        <path id="Path_37" data-name="Path 37" d="M171.911,154.9a.559.559,0,0,1-.8.525c-.6-.315-1.2-.631-1.769-.988-.614-.383-1.261-.7-1.884-1.067-.5-.3-1-.6-1.5-.911a.52.52,0,0,1-.273-.543.564.564,0,0,1,.428-.465.554.554,0,0,1,.458.1q1.47.842,2.937,1.687,1.019.587,2.034,1.178a.6.6,0,0,1,.367.488" transform="translate(-135.006 -123.397)" fill="#fff"/>
        <path id="Path_38" data-name="Path 38" d="M.579,55.781a.642.642,0,0,1,.343.12q2.343,1.353,4.687,2.7a3.389,3.389,0,0,1,.387.249.511.511,0,0,1,.149.729.543.543,0,0,1-.744.183c-.814-.431-1.6-.906-2.4-1.374-.852-.5-1.714-.991-2.57-1.488a1.5,1.5,0,0,1-.261-.187.478.478,0,0,1-.129-.566.589.589,0,0,1,.536-.37" transform="translate(0 -45.454)" fill="#fff"/>
        <path id="Path_39" data-name="Path 39" d="M97.749,3.506q0,1.4,0,2.809a.714.714,0,0,1-.158.514.529.529,0,0,1-.912-.169,1.055,1.055,0,0,1-.062-.384q0-2.786,0-5.572a1.093,1.093,0,0,1,.024-.251.555.555,0,0,1,1.1.083c.013.191.006.384.006.575q0,1.2,0,2.395" transform="translate(-78.73 0)" fill="#fff"/>
        <path id="Path_40" data-name="Path 40" d="M97.748,194.741q0,1.4,0,2.808a.768.768,0,0,1-.111.462.53.53,0,0,1-.509.254.521.521,0,0,1-.448-.349,1.091,1.091,0,0,1-.064-.407q0-2.774,0-5.548a1.291,1.291,0,0,1,.009-.184.586.586,0,0,1,.621-.524.553.553,0,0,1,.5.587c0,.967,0,1.934,0,2.9" transform="translate(-78.73 -155.845)" fill="#fff"/>
        <path id="Path_41" data-name="Path 41" d="M41.561,186.818a.576.576,0,0,1-.5-.891c.227-.418.467-.829.706-1.241q1.051-1.813,2.106-3.624a2.181,2.181,0,0,1,.149-.232.528.528,0,0,1,.73-.161.522.522,0,0,1,.191.739c-.342.618-.7,1.229-1.048,1.841q-.919,1.6-1.842,3.19a.633.633,0,0,1-.488.379" transform="translate(-33.385 -147.153)" fill="#fff"/>
      </g>
    </g>
  </g>
</svg>
