<svg xmlns="http://www.w3.org/2000/svg" xmlns:xlink="http://www.w3.org/1999/xlink" width="72" height="72" viewBox="0 0 72 72">
  <defs>
    <clipPath id="clip-path">
      <rect id="Rectangle_11" data-name="Rectangle 11" width="25.633" height="36.322" fill="#fff"/>
    </clipPath>
  </defs>
  <g id="Group_37906" data-name="Group 37906" transform="translate(-241 -2399)">
    <path id="Path_47" data-name="Path 47" d="M36,0A36,36,0,1,1,0,36,36,36,0,0,1,36,0Z" transform="translate(241 2399)" fill="#a5a5a5"/>
    <g id="Group_43" data-name="Group 43" transform="translate(264.183 2416.839)">
      <g id="Group_42" data-name="Group 42" clip-path="url(#clip-path)">
        <path id="Path_42" data-name="Path 42" d="M17.118,118.894a10.028,10.028,0,0,0,6.666-2.5,9.921,9.921,0,0,0,3.446-6.218,10.212,10.212,0,0,0-2.325-8.31c-.2-.243-.432-.46-.64-.7a.822.822,0,0,1,.006-1.194.8.8,0,0,1,1.132.005,12.071,12.071,0,0,1,3.573,7.538,11.662,11.662,0,0,1-1.89,7.571A11.731,11.731,0,0,1,20.648,120a11.581,11.581,0,0,1-3.239.57A12.062,12.062,0,0,1,5.218,110.79,10.433,10.433,0,0,1,5,108.142a12.159,12.159,0,0,1,2.84-7.3c.223-.266.463-.519.705-.768a.822.822,0,0,1,1.245-.078.779.779,0,0,1,.063,1.07c-.246.3-.531.579-.781.881a10.051,10.051,0,0,0-2.292,5.213,10.311,10.311,0,0,0,5.433,10.57,9.806,9.806,0,0,0,3.27,1.065,10.145,10.145,0,0,0,1.639.1" transform="translate(-4.209 -84.259)" fill="#fff"/>
        <path id="Path_43" data-name="Path 43" d="M30.622,46.175a.687.687,0,0,1,.167-.513c.813-1.025,1.553-2.1,2.328-3.156a1.037,1.037,0,0,1,.9-.462q4.657.01,9.313,0a1.059,1.059,0,0,1,.954.505c.664.982,1.384,1.923,2.083,2.88.042.057.084.114.124.172a.865.865,0,0,1-.05,1.241q-1.83,2.234-3.666,4.462-1.705,2.061-3.425,4.109a.777.777,0,0,1-1.3.037c-.732-.839-1.453-1.689-2.151-2.557-1.186-1.476-2.422-2.909-3.618-4.377-.5-.609-.982-1.226-1.505-1.813a.684.684,0,0,1-.15-.53m8.066-2.44c-1.4,0-2.808,0-4.212,0a.349.349,0,0,0-.323.159c-.3.426-.613.844-.919,1.266-.032.045-.1.087-.074.147s.115.039.175.039q3.787,0,7.574,0a1.753,1.753,0,0,1,.422.036.85.85,0,0,1,.484,1.332.89.89,0,0,1-.745.343q-3.835,0-7.67-.007c-.036,0-.082-.026-.1.021s.017.072.04.1c.047.061.095.122.144.181q1.216,1.463,2.432,2.926c.874,1.048,1.712,2.126,2.606,3.158.108.125.175.156.3.011.4-.474.789-.95,1.191-1.42.594-.694,1.154-1.418,1.735-2.124q1.466-1.783,2.943-3.557a.27.27,0,0,0,.007-.4q-.749-1.008-1.478-2.03a.385.385,0,0,0-.353-.179c-1.391.005-2.782,0-4.173,0" transform="translate(-25.866 -35.519)" fill="#fff"/>
        <path id="Path_44" data-name="Path 44" d="M76.991,2.559c0-.528-.008-1.056,0-1.583a.9.9,0,0,1,.531-.908A.815.815,0,0,1,78.66.7a3.26,3.26,0,0,1,.037.461c0,1.01.007,2.021,0,3.031a.855.855,0,0,1-.887.93.829.829,0,0,1-.782-.656,1.967,1.967,0,0,1-.043-.441c0-.489,0-.978,0-1.467Z" transform="translate(-65.039 0)" fill="#fff"/>
        <path id="Path_45" data-name="Path 45" d="M138.7,28.663a.791.791,0,0,1,.276-.616q1.2-1.2,2.4-2.4a.822.822,0,0,1,1.138-.036.845.845,0,0,1,.122,1.135,1.174,1.174,0,0,1-.126.146q-1.174,1.175-2.351,2.348a.845.845,0,0,1-1.091.148.823.823,0,0,1-.373-.72" transform="translate(-117.171 -21.453)" fill="#fff"/>
        <path id="Path_46" data-name="Path 46" d="M4.087,28.634a.789.789,0,0,1-.428.778.808.808,0,0,1-.908-.07,1.994,1.994,0,0,1-.215-.194Q1.423,28.037.311,26.925A.912.912,0,0,1,0,26.185a.8.8,0,0,1,.528-.719.723.723,0,0,1,.84.144c.83.817,1.65,1.643,2.47,2.47a.735.735,0,0,1,.246.553" transform="translate(0 -21.451)" fill="#fff"/>
      </g>
    </g>
  </g>
</svg>
