<svg id="Group_116" data-name="Group 116" xmlns="http://www.w3.org/2000/svg" xmlns:xlink="http://www.w3.org/1999/xlink" width="45.602" height="49.584" viewBox="0 0 45.602 49.584">
  <defs>
    <clipPath id="clip-path">
      <rect id="Rectangle_24" data-name="Rectangle 24" width="45.602" height="49.585" fill="none"/>
    </clipPath>
  </defs>
  <g id="Group_115" data-name="Group 115" clip-path="url(#clip-path)">
    <path id="Path_54" data-name="Path 54" d="M42.142,16.3a44.733,44.733,0,0,1-.233,5.093,1.3,1.3,0,0,1-1.3,1.237,1.253,1.253,0,0,1-1.194-1.35c.029-1.2.18-2.4.206-3.6.02-.956.035-1.911.006-2.865-.027-.887-.1-1.772-.15-2.658-.058-1.021-.229-2.028-.349-3.042-.025-.209-.175-.255-.328-.309-.965-.336-1.932-.665-2.9-1.007Q30.8,5.986,25.7,4.169c-1.377-.49-2.755-.975-4.129-1.473a1.3,1.3,0,0,0-.939,0C16.816,4.065,13,5.441,9.167,6.781,7.283,7.44,5.405,8.117,3.516,8.76a.634.634,0,0,0-.52.6c-.155,1.509-.355,3.012-.427,4.53-.057,1.213-.078,2.426-.04,3.638q.079,2.5.379,4.993a37.206,37.206,0,0,0,1.621,7.283,27.39,27.39,0,0,0,4.257,8.234,22.134,22.134,0,0,0,6.356,5.711,25.963,25.963,0,0,0,5.009,2.319c.455.149.9.308,1.343.495a1.222,1.222,0,1,1-.812,2.306,47.138,47.138,0,0,1-4.537-1.766,24.651,24.651,0,0,1-6.6-4.55A27.286,27.286,0,0,1,4.408,35.78a33.509,33.509,0,0,1-3.292-9.13A48.355,48.355,0,0,1,.274,21.6a49.784,49.784,0,0,1-.225-7.611A52.315,52.315,0,0,1,.71,7.9a1.241,1.241,0,0,1,.881-1.058q3.46-1.215,6.914-2.448c3.013-1.073,6.023-2.159,9.039-3.223C18.562.812,19.591.487,20.6.094a1.33,1.33,0,0,1,.974,0q3.5,1.244,6.995,2.476,5.212,1.845,10.424,3.69c.5.175,1,.332,1.489.515A1.47,1.47,0,0,1,41.5,8.062a54.688,54.688,0,0,1,.64,8.238" transform="translate(0 0)"/>
    <path id="Path_55" data-name="Path 55" d="M122.483,136.615c-1.939,0-3.878,0-5.818,0a4.215,4.215,0,0,1-1.762-.326,3.64,3.64,0,0,1-2.276-3.427c-.053-2.425-.039-4.853-.006-7.279a3.729,3.729,0,0,1,3.687-3.679l.057,0c.5-.023.5-.024.506-.526.015-1.031-.021-2.062.033-3.093a5.522,5.522,0,0,1,10.9-.92,5.963,5.963,0,0,1,.142,1.307c.006.946.012,1.891,0,2.837,0,.248.053.35.329.36a4.251,4.251,0,0,1,2.212.6,3.7,3.7,0,0,1,1.753,3.207c.042,2.378.034,4.757.005,7.136a3.743,3.743,0,0,1-2.95,3.713,4.929,4.929,0,0,1-1.024.1q-2.895,0-5.789,0Zm-.039-12.223v0q-3,0-5.99,0a1.205,1.205,0,0,0-1.354,1.34c-.009.888,0,1.777,0,2.665,0,1.471-.006,2.943.006,4.414a1.229,1.229,0,0,0,1.27,1.3q6.062,0,12.123,0a1.172,1.172,0,0,0,1.247-1.212c.012-2.436.006-4.872,0-7.308a1.179,1.179,0,0,0-.457-.948,1.368,1.368,0,0,0-.918-.254q-2.966,0-5.932,0m-.019-2.537h0c.907,0,1.814-.006,2.721,0,.238,0,.313-.079.311-.314-.009-.983-.005-1.967,0-2.95a2.927,2.927,0,0,0-.43-1.551,3.048,3.048,0,0,0-3.473-1.351,2.973,2.973,0,0,0-2.143,2.861c0,.993.005,1.986-.007,2.979,0,.253.079.329.329.325.9-.013,1.795-.005,2.692-.005" transform="translate(-86.669 -87.033)"/>
    <path id="Path_56" data-name="Path 56" d="M52.661,75.95a1.361,1.361,0,0,1,.79-1.264,1.107,1.107,0,0,1,1.308.294c.451.478.855,1,1.274,1.51q1.64,1.989,3.272,3.984c.16.2.242.219.417,0,1.684-2.077,3.359-4.161,5.079-6.207,1.137-1.353,2.224-2.745,3.345-4.111a1.452,1.452,0,0,1,1.355-.694,1.207,1.207,0,0,1,.963,1.669,2.1,2.1,0,0,1-.318.508c-1.56,1.931-3.121,3.861-4.706,5.772-1.463,1.764-2.9,3.551-4.346,5.327-.193.236-.394.467-.6.694a1.247,1.247,0,0,1-2.024-.05c-1.054-1.3-2.1-2.6-3.154-3.9-.8-.977-1.6-1.947-2.4-2.921a1.084,1.084,0,0,1-.257-.618" transform="translate(-40.536 -53.462)"/>
    <path id="Path_57" data-name="Path 57" d="M149.822,175.007a11.058,11.058,0,0,1,.034-1.333,1.232,1.232,0,0,1,2.439.005,13.659,13.659,0,0,1,0,2.828A1.24,1.24,0,0,1,151,177.531a1.227,1.227,0,0,1-1.149-1.113c-.056-.468-.013-.934-.034-1.411" transform="translate(-115.323 -132.874)"/>
  </g>
</svg>
