<svg id="Group_114" data-name="Group 114" xmlns="http://www.w3.org/2000/svg" xmlns:xlink="http://www.w3.org/1999/xlink" width="54.424" height="48.949" viewBox="0 0 54.424 48.949">
  <defs>
    <clipPath id="clip-path">
      <rect id="Rectangle_23" data-name="Rectangle 23" width="54.424" height="48.949" fill="none"/>
    </clipPath>
  </defs>
  <g id="Group_113" data-name="Group 113" clip-path="url(#clip-path)">
    <path id="Path_52" data-name="Path 52" d="M27.208,48.947q-11.332,0-22.663,0a4.467,4.467,0,0,1-2.792-.8A4.138,4.138,0,0,1,0,44.653c.007-4.032,0-8.063,0-12.1,0-6.239.01-12.477,0-18.716a4.879,4.879,0,0,1,1.452-3.577c2.468-2.529,4.982-5.01,7.476-7.513.5-.5,1.025-.985,1.525-1.49A4.141,4.141,0,0,1,13.491.02C16.25.005,19.008.01,21.767.009c6.249,0,12.5.011,18.748-.008a4.774,4.774,0,0,1,3.679,1.5c.423.447.869.872,1.3,1.307C47.861,5.171,50.186,7.574,52.6,9.88a5.6,5.6,0,0,1,1.821,4.348c-.033,10.016-.016,20.031-.013,30.047a7.012,7.012,0,0,1-.1,1.362,4.12,4.12,0,0,1-3.558,3.252,10.844,10.844,0,0,1-1.238.058q-11.156,0-22.312,0m.061-2.777v0q11.459,0,22.919,0a1.957,1.957,0,0,0,.473-.04,1.307,1.307,0,0,0,.971-1.393q0-4.106,0-8.213,0-11.268.006-22.537c0-.286-.067-.4-.368-.379q-.921.052-1.844.053-8.26,0-16.52,0a2.41,2.41,0,0,1-.6-.061,1.447,1.447,0,0,1-1.106-1.45,1.352,1.352,0,0,1,1.179-1.267,3.75,3.75,0,0,1,.729-.041q8.021,0,16.043,0c.107,0,.263.068.314-.067.04-.1-.092-.179-.164-.252-2.4-2.419-4.831-4.8-7.2-7.252A1.566,1.566,0,0,0,40.91,2.78q-5.889.015-11.778.006c-.521,0-.518,0-.517.52q0,4.408.006,8.817a1.459,1.459,0,0,1-1.562,1.549c-.371,0-.743-.01-1.114-.01q-9.295,0-18.589,0a2.776,2.776,0,0,1-.971-.135,1.379,1.379,0,0,1-.9-1.394A1.365,1.365,0,0,1,6.546,10.9a3.341,3.341,0,0,1,.791-.054H25.322c.477,0,.478,0,.478-.467q0-3.565,0-7.13c0-.461,0-.462-.48-.462-3.862,0-7.724.007-11.586-.008a1.993,1.993,0,0,0-1.522.638Q7.756,7.9,3.269,12.347a1.61,1.61,0,0,0-.49,1.224q.009,15.422,0,30.845c0,.117,0,.234,0,.35a1.337,1.337,0,0,0,1.467,1.4c.159,0,.318,0,.478,0H27.268" transform="translate(0 -0.001)"/>
    <path id="Path_53" data-name="Path 53" d="M68.372,94.579c.134.106.277.06.408.06q4.407,0,8.814,0a7.43,7.43,0,0,1,4.347,1.2,7.515,7.515,0,0,1,3.382,5.477,3.038,3.038,0,0,1,.011,1.137,1.381,1.381,0,0,1-2.724-.232,5,5,0,0,0-.772-2.683,4.686,4.686,0,0,0-3.929-2.114c-3.065-.018-6.131-.007-9.2-.005-.09,0-.219-.048-.261.053s.084.158.146.221q1.536,1.547,3.077,3.088A1.368,1.368,0,1,1,69.94,102.9a10.875,10.875,0,0,1-.841-.776c-1.2-1.214-2.439-2.391-3.6-3.644a11.758,11.758,0,0,0-1.146-1.1,4.3,4.3,0,0,1-.37-.349,1.275,1.275,0,0,1,.031-2.01c1.074-1,2.095-2.044,3.133-3.075.9-.89,1.778-1.793,2.681-2.675a1.351,1.351,0,0,1,2.086,1.712,4.069,4.069,0,0,1-.361.4Q70,92.929,68.439,94.475a.6.6,0,0,0-.067.1" transform="translate(-47.273 -66.112)"/>
  </g>
</svg>
