<svg id="Group_105" data-name="Group 105" xmlns="http://www.w3.org/2000/svg" xmlns:xlink="http://www.w3.org/1999/xlink" width="50.353" height="50.34" viewBox="0 0 50.353 50.34">
  <defs>
    <clipPath id="clip-path">
      <rect id="Rectangle_22" data-name="Rectangle 22" width="50.353" height="50.34" fill="none"/>
    </clipPath>
  </defs>
  <g id="Group_104" data-name="Group 104" clip-path="url(#clip-path)">
    <path id="Path_48" data-name="Path 48" d="M3.133,35.116a.421.421,0,0,0-.158.267A18.008,18.008,0,0,0,1.984,39a8.9,8.9,0,0,0,.024,3.067,3.582,3.582,0,0,0,3.043,2.792c.167.02.334.041.5.074a.933.933,0,0,1,.812.956.958.958,0,0,1-1.017.848,5.676,5.676,0,0,1-3.108-1.075A5.461,5.461,0,0,1,.13,42.049,10.652,10.652,0,0,1,.436,37.5a22.361,22.361,0,0,1,1.531-4.359.4.4,0,0,0-.013-.373,23.622,23.622,0,0,1-1.8-6.575,12.158,12.158,0,0,1-.141-1.816.951.951,0,0,1,.872-1.013.956.956,0,0,1,.958.942C1.9,25.151,2,26,2.116,26.837a16.822,16.822,0,0,0,1.325,4.709,23.373,23.373,0,0,0,2.647,4.72,22.323,22.323,0,0,0,7.236,6.189.988.988,0,0,0,1.064.007c1.345-.756,2.7-1.494,4.006-2.317.046-.029.088-.064.16-.118a.375.375,0,0,0-.305.063,4.052,4.052,0,0,1-5.669-3.808c.03-1.431-.01-2.863.01-4.294A2.586,2.586,0,0,0,11.181,29.5a4.027,4.027,0,0,1-1.937-2.2,3.451,3.451,0,0,1-.213-1.04,10.179,10.179,0,0,1,.107-3.015,4.491,4.491,0,0,1,3.147-3.292c.225-.073.329-.164.3-.407-.021-.213,0-.43-.006-.645a.827.827,0,0,0-.729-.857c-.265-.052-.538-.074-.8-.14A2.686,2.686,0,0,1,9,15.427c-.053-.755-.328-1.014-1.077-1.014-1.272,0-2.545.005-3.817,0a.391.391,0,0,0-.437.288c-.3.814-.638,1.618-.868,2.458a1.168,1.168,0,0,1-.439.7.879.879,0,0,1-1,.061.853.853,0,0,1-.452-.92,8.415,8.415,0,0,1,.534-1.74,23.245,23.245,0,0,1,3.3-6.032,22.9,22.9,0,0,1,9.283-7.274A24.362,24.362,0,0,1,21.136.109,23,23,0,0,1,30.005,1a22.693,22.693,0,0,1,2.554.932.932.932,0,0,0,.8-.025A21.209,21.209,0,0,1,38.9.206a9.424,9.424,0,0,1,3.731.071,5.161,5.161,0,0,1,3.9,3.935A9.213,9.213,0,0,1,46.5,8.463a23.888,23.888,0,0,1-1.665,5.079.562.562,0,0,0-.009.5,24.7,24.7,0,0,1,1.687,5.771,23.385,23.385,0,0,1,.2,5.509,20.569,20.569,0,0,1-1.21,5.63c-.032.088-.066.175-.1.263-.058.156-.009.237.163.22a1.344,1.344,0,0,1,1.244.664c1.043,1.369,2.112,2.718,3.224,4.032a1.254,1.254,0,0,1,.313.866q-.015,6.048-.007,12.1c0,.9-.345,1.242-1.235,1.243H44.34c-.084,0-.169,0-.252,0a.976.976,0,0,1-.956-.89.965.965,0,0,1,.937-.937c.112-.009.225-.005.337-.006,1.272,0,2.544,0,3.817,0,.217,0,.293-.06.293-.286q-.009-5.08,0-10.16c0-.238-.081-.3-.308-.3q-2.821.011-5.641,0c-.228,0-.316.063-.307.3.016.449.005.9,0,1.347a.992.992,0,0,1-.292.764.857.857,0,0,1-.955.213.888.888,0,0,1-.58-.851c-.017-.5-.017-.992,0-1.487.006-.228-.079-.286-.294-.285q-2.835.009-5.669,0c-.218,0-.292.062-.292.287q.009,5.08,0,10.16c0,.239.084.3.309.3,1.908-.007,3.817,0,5.726,0a1.31,1.31,0,0,1,.627.119.878.878,0,0,1-.042,1.616,1.494,1.494,0,0,1-.631.1q-3.3,0-6.6,0c-.877,0-1.225-.349-1.225-1.224,0-1.291,0-2.582,0-3.873,0-.239-.048-.291-.281-.194A23.329,23.329,0,0,1,26.058,46.6a22.371,22.371,0,0,1-4.311.1A23.468,23.468,0,0,1,14.1,44.841a.684.684,0,0,0-.588,0,27.189,27.189,0,0,1-4.293,1.472.929.929,0,0,1-1.189-.648.918.918,0,0,1,.663-1.083c.044-.015.089-.031.134-.042.736-.18,1.453-.424,2.176-.648a2.013,2.013,0,0,0,.239-.082c.116-.053.312-.05.329-.171s-.169-.175-.275-.24A23.064,23.064,0,0,1,3.2,35.2a.6.6,0,0,0-.068-.081m15.7,4.708c.118.019.195-.06.275-.115,1.492-1.015,2.969-2.049,4.362-3.2,1.325-1.1,2.663-2.181,3.928-3.349,1.154-1.066,2.31-2.131,3.428-3.235.055-.055.161-.105.116-.2-.036-.076-.136-.039-.207-.039-.617,0-1.235,0-1.852,0a.975.975,0,0,1-1.021-.912.963.963,0,0,1,1.015-.917q2.147-.014,4.294,0a.964.964,0,0,1,1.006,1.015c.009.327,0,.655,0,.982,0,1.113,0,2.227,0,3.34a.914.914,0,1,1-1.826.062c-.009-.093-.006-.187-.006-.28,0-.58,0-1.16,0-1.74,0-.07.037-.169-.044-.2s-.126.06-.176.109c-.763.758-1.509,1.534-2.29,2.274a67.732,67.732,0,0,1-6.566,5.563c-1.571,1.149-3.161,2.268-4.827,3.275-.782.472-1.58.917-2.374,1.376.059.073.148.079.224.107a20.8,20.8,0,0,0,6.9,1.176,21.249,21.249,0,0,0,3.326-.216,22.563,22.563,0,0,0,5.489-1.553.486.486,0,0,0,.342-.527c-.012-1.871,0-3.742-.013-5.613a1.264,1.264,0,0,1,.3-.871c.574-.69,1.132-1.394,1.695-2.093s1.125-1.4,1.684-2.1a1.2,1.2,0,0,1,1.034-.5c1.16.026,2.32.01,3.48.007.1,0,.2.039.3-.05a1.184,1.184,0,0,0-.075-.119,5.456,5.456,0,0,1-1.238-3.3,1.758,1.758,0,0,0-1.533-1.854,5.265,5.265,0,0,0-.7-.025c-1.046-.03-2.1.073-3.139-.06a3.221,3.221,0,0,1-2.7-3.039A3.255,3.255,0,0,1,34.1,19.814a7.751,7.751,0,0,0,1.248-.164,2.541,2.541,0,0,0,1.5-1.566,8.749,8.749,0,0,1,5.105-4.954c.32-.118.32-.126.142-.433a21.167,21.167,0,0,0-4.574-5.564,22.144,22.144,0,0,0-5.96-3.7A21.5,21.5,0,0,0,21.929,1.9c-.365.022-.729.078-1.093.118a.163.163,0,0,0,.1.074,8.355,8.355,0,0,1,5.337,4.593,8.2,8.2,0,0,1,.649,2.17.9.9,0,0,1-.68,1.046.912.912,0,0,1-1.075-.593,2.813,2.813,0,0,1-.115-.433,6.187,6.187,0,0,0-1.882-3.43A6.46,6.46,0,0,0,18.7,3.639c-1.206-.015-2.414,0-3.62,0a1.214,1.214,0,0,0-.516.11A21.923,21.923,0,0,0,8.79,7.57a21,21,0,0,0-3.8,4.662c-.055.092-.2.179-.14.285.064.123.222.057.337.058.954.006,1.909-.012,2.863.011a2.73,2.73,0,0,1,2.776,2.635.894.894,0,0,0,.98.952,2.76,2.76,0,0,1,2.611,2.712c0,.44-.018.88,0,1.319.06,1.138-.439,1.359-1.282,1.441l-.056,0a2.69,2.69,0,0,0-2.211,2.172,12.017,12.017,0,0,0-.034,2.157A2.27,2.27,0,0,0,12.019,27.9c.193.114.387.229.572.356a3.931,3.931,0,0,1,1.826,3.383c.013,1.534.006,3.068,0,4.6a2.931,2.931,0,0,0,.071.639,2.219,2.219,0,0,0,1.981,1.75,2.042,2.042,0,0,0,2.207-1.52c.28-.8.434-1.644.741-2.441a3.543,3.543,0,0,1,3.262-2.329A1.8,1.8,0,0,0,24.6,30.68c.117-.672.2-1.349.333-2.018a.928.928,0,0,1,1.091-.8,1,1,0,0,1,.717,1.169c-.086.563-.183,1.125-.258,1.69A3.725,3.725,0,0,1,22.8,34.165a1.788,1.788,0,0,0-1.825,1.444c-.2.7-.4,1.4-.617,2.1a3.919,3.919,0,0,1-1.378,1.936c-.06.047-.16.066-.15.181m23.2-24.733a6.867,6.867,0,0,0-2.2,1.606,8.852,8.852,0,0,0-1.395,2.288A4.17,4.17,0,0,1,34.7,21.6a1.326,1.326,0,1,0-.044,2.649c1.038,0,2.076-.008,3.114,0a3.673,3.673,0,0,1,3.6,3.569,3.485,3.485,0,0,0,1.544,2.989c.436.289.524.4.736-.229a21.746,21.746,0,0,0,1.17-8.907,22.157,22.157,0,0,0-1.086-5.284c-.03-.089-.032-.2-.153-.258-.05.081-.1.15-.136.224A42.053,42.053,0,0,1,40.97,20.5a2.442,2.442,0,0,1-.381.483.91.91,0,0,1-1.268-.024.892.892,0,0,1-.049-1.27c.739-1.07,1.421-2.175,2.068-3.3a9.26,9.26,0,0,0,.7-1.292m1.608-3.356c.112-.31.2-.562.295-.816a13.442,13.442,0,0,0,.928-5.375,4.183,4.183,0,0,0-.387-1.654A3.639,3.639,0,0,0,41.14,1.9a14.181,14.181,0,0,0-5.89,1.185c-.05.019-.122.028-.13.091-.01.084.077.1.129.127a22.23,22.23,0,0,1,3.577,2.6A21.039,21.039,0,0,1,42.3,9.7c.448.654.869,1.327,1.346,2.033m1.265,24.193q1.164,0,2.327,0c.072,0,.166.033.21-.036s-.046-.13-.088-.183c-.592-.747-1.19-1.489-1.779-2.239a.467.467,0,0,0-.405-.2c-.879,0-1.757.007-2.636,0-.2,0-.281.061-.278.272.01.7.011,1.4,0,2.1,0,.224.075.29.292.287.785-.01,1.57,0,2.355,0m-7.1,0c.776,0,1.552-.006,2.328,0,.213,0,.3-.054.3-.284-.013-.7-.011-1.4,0-2.1,0-.209-.069-.276-.276-.274-.795.009-1.59.018-2.384,0a.768.768,0,0,0-.691.323c-.553.707-1.119,1.4-1.678,2.105-.044.055-.135.1-.1.185s.134.047.2.047c.767,0,1.534,0,2.3,0" transform="translate(0 0)"/>
    <path id="Path_49" data-name="Path 49" d="M161.247,199.232c.28,0,.56-.009.839,0a.916.916,0,1,1-.009,1.827c-.55.013-1.1.014-1.651,0a.916.916,0,1,1,.009-1.826c.27-.01.541,0,.811,0" transform="translate(-123.505 -154.319)"/>
    <path id="Path_50" data-name="Path 50" d="M1.759,89.082a.936.936,0,0,1-.9-.926.963.963,0,0,1,.951-1.032.981.981,0,0,1-.048,1.958" transform="translate(-0.663 -67.485)"/>
    <path id="Path_51" data-name="Path 51" d="M71.986,59.916a15.152,15.152,0,0,1,2.35.107,5.956,5.956,0,0,1,3.623,2.018,6.408,6.408,0,0,1,1.5,3.033A.913.913,0,0,1,78.8,66.2a.883.883,0,0,1-1.1-.666,5.3,5.3,0,0,0-1.031-2.216,4.149,4.149,0,0,0-2.936-1.515c-1.634-.128-3.272-.029-4.908-.054a1.071,1.071,0,0,1-.687-.193.905.905,0,0,1-.271-1.135c.21-.52.42-1.041.661-1.547a27.712,27.712,0,0,1,1.236-2.671,5.14,5.14,0,0,1,4.346-2.574A3.576,3.576,0,0,0,77.02,52.2a.87.87,0,0,1,1.248-.176.855.855,0,0,1,.19,1.239,4.975,4.975,0,0,1-3.569,2.142,13.5,13.5,0,0,0-1.528.19,3.161,3.161,0,0,0-2.145,1.751c-.374.753-.685,1.537-1.031,2.3-.087.194-.051.269.172.266.543-.009,1.085,0,1.628,0" transform="translate(-52.5 -40.154)"/>
  </g>
</svg>
