<svg xmlns="http://www.w3.org/2000/svg" xmlns:xlink="http://www.w3.org/1999/xlink" width="65.855" height="75.703" viewBox="0 0 65.855 75.703">
  <defs>
    <clipPath id="clip-path">
      <rect id="Rectangle_10" data-name="Rectangle 10" width="65.855" height="75.703"/>
    </clipPath>
  </defs>
  <g id="Group_40" data-name="Group 40" clip-path="url(#clip-path)">
    <path id="Path_31" data-name="Path 31" d="M49.58,63.711c3.372,0,6.744.011,10.116-.011a1.715,1.715,0,0,1,1.311.544q3.748,3.752,7.5,7.5c1.4,1.407,2.793,2.827,4.2,4.234.387.387.8.749,1.2,1.122a1.057,1.057,0,0,1,.043,1.526c-1.064,1.087-2.128,2.174-3.2,3.25q-9.185,9.192-18.377,18.377a27.726,27.726,0,0,0-2.124,2.117,1.193,1.193,0,0,1-1.494-.028c-2-2.162-4.149-4.181-6.219-6.276-3.276-3.314-6.584-6.595-9.879-9.889q-2.994-2.995-5.99-5.987c-.5-.493-1.017-.959-1.519-1.445a1.172,1.172,0,0,1,.023-1.708c.551-.458,1.026-.989,1.53-1.491Q32.351,69.916,38,64.279a1.818,1.818,0,0,1,1.386-.576c3.4.018,6.8.009,10.2.009m-.061,15.181H41.539c-1,0-1,0-.588.916q2.485,5.576,4.968,11.154c1.134,2.555,2.257,5.116,3.389,7.672.051.116.062.3.232.3.115,0,.134-.158.178-.255,1.391-3,2.7-6.029,4.013-9.057,1.486-3.418,3.163-6.752,4.5-10.235.19-.494.206-.494-.323-.494h-8.39m16.091-2.019h0q2.324,0,4.647,0c.13,0,.312.065.379-.074.074-.155-.113-.227-.2-.315-.495-.474-1.009-.928-1.494-1.412q-4.454-4.443-8.893-8.9a1.417,1.417,0,0,0-1.094-.443c-2.111.009-4.223,0-6.334.01-.259,0-.629-.148-.755.111-.1.209.271.366.393.574a.349.349,0,0,0,.025.033q4,5.011,8,10.024a.976.976,0,0,0,.845.4c1.494-.014,2.988-.006,4.483-.006m-32.178,0q2.3,0,4.6,0a.735.735,0,0,0,.651-.261q2.57-3.232,5.16-6.449c1.1-1.366,2.211-2.721,3.314-4.083.065-.08.184-.156.134-.278s-.168-.072-.259-.072q-3.535,0-7.07,0a1.131,1.131,0,0,0-.836.367q-2.9,2.916-5.812,5.815l-4.624,4.618c-.082.082-.261.127-.2.268s.221.069.338.069c1.535,0,3.069,0,4.6,0M52.835,96.8c.1.014.138-.077.19-.131.908-.952,1.859-1.861,2.792-2.788q7.354-7.3,14.671-14.647c.075-.074.208-.143.169-.259s-.19-.079-.293-.079q-4.648,0-9.3-.007a.49.49,0,0,0-.525.353c-.2.51-.4,1.023-.637,1.515-1.118,2.292-2.085,4.652-3.13,6.977-.809,1.8-1.547,3.632-2.391,5.414-.535,1.128-.931,2.315-1.519,3.418a.232.232,0,0,0-.032.234M28.441,78.918,46.207,96.856a.354.354,0,0,0-.039-.333c-.434-1.142-1.06-2.2-1.513-3.33-1.026-2.557-2.2-5.049-3.338-7.554-.952-2.1-1.741-4.263-2.81-6.307a.653.653,0,0,0-.668-.447c-2.988.014-5.977.007-8.966.01a1.111,1.111,0,0,0-.431.024m21.067-2.044q3.988,0,7.976,0c.128,0,.3.061.367-.1.048-.113-.082-.189-.149-.272q-3.925-4.859-7.849-9.719c-.294-.365-.365-.377-.637-.016-.76,1.006-1.573,1.969-2.353,2.958-1.773,2.247-3.6,4.449-5.408,6.672-.1.121-.294.239-.217.405.068.147.275.069.418.069q3.927.006,7.853,0" transform="translate(-16.598 -42.656)"/>
    <path id="Path_32" data-name="Path 32" d="M1.152,158.707A1.073,1.073,0,0,1,.106,158a.965.965,0,0,1,.467-1.16c.585-.38,1.174-.757,1.78-1.1q3.581-2.048,7.174-4.076a1.138,1.138,0,0,1,.82-.19,1.032,1.032,0,0,1,.81.832.928.928,0,0,1-.47,1.013c-1.1.665-2.2,1.33-3.319,1.97-1.852,1.062-3.714,2.105-5.574,3.153a1.628,1.628,0,0,1-.643.266" transform="translate(-0.035 -101.42)"/>
    <path id="Path_33" data-name="Path 33" d="M176.763,56.923a1.21,1.21,0,0,1-.657.9c-.568.386-1.2.651-1.785,1.013-1.626,1.015-3.275,1.991-4.955,2.913-.72.395-1.437.793-2.163,1.177a.985.985,0,0,1-1.42-.35.953.953,0,0,1,.419-1.394c2.626-1.5,5.192-3.105,7.861-4.53.423-.226.83-.481,1.262-.687a1.007,1.007,0,0,1,1.437.96" transform="translate(-110.913 -37.407)"/>
    <path id="Path_34" data-name="Path 34" d="M137.634,180.559a1.1,1.1,0,0,1,.88.619c1.028,1.8,2.052,3.594,3.1,5.379.609,1.041,1.228,2.076,1.8,3.139a6.054,6.054,0,0,1,.29.59.943.943,0,0,1-.43,1.264.915.915,0,0,1-1.261-.322c-.358-.535-.673-1.1-1-1.655q-2.047-3.542-4.085-7.09a4.693,4.693,0,0,1-.3-.586,1,1,0,0,1,1-1.339" transform="translate(-91.446 -120.909)"/>
    <path id="Path_35" data-name="Path 35" d="M41.87,14.926a1.128,1.128,0,0,1,1.068.678c.547.935,1.084,1.875,1.623,2.814q1.608,2.8,3.212,5.6a5.074,5.074,0,0,1,.306.627.973.973,0,0,1-.431,1.267.921.921,0,0,1-1.287-.35c-.343-.528-.647-1.082-.962-1.628q-2.141-3.7-4.276-7.408a1,1,0,0,1,.746-1.6" transform="translate(-27.417 -9.995)"/>
    <path id="Path_36" data-name="Path 36" d="M142.8,14.948a1,1,0,0,1,.9,1.429c-.272.552-.607,1.073-.916,1.607q-2.082,3.594-4.165,7.187a4.087,4.087,0,0,1-.311.484.958.958,0,0,1-1.286.246.929.929,0,0,1-.369-1.216c.469-.93.936-1.865,1.481-2.75q1.628-2.645,3.112-5.372a12.7,12.7,0,0,1,.683-1.076,1.047,1.047,0,0,1,.872-.538" transform="translate(-91.443 -10.01)"/>
    <path id="Path_37" data-name="Path 37" d="M176.8,157.622a1,1,0,0,1-1.434.936c-1.067-.562-2.135-1.126-3.158-1.763-1.1-.683-2.251-1.253-3.362-1.9-.9-.527-1.784-1.075-2.668-1.625a.928.928,0,0,1-.487-.969,1.006,1.006,0,0,1,.763-.831.989.989,0,0,1,.818.174q2.622,1.5,5.241,3.011,1.818,1.047,3.63,2.1a1.077,1.077,0,0,1,.656.871" transform="translate(-110.945 -101.405)"/>
    <path id="Path_38" data-name="Path 38" d="M1.032,55.781a1.145,1.145,0,0,1,.611.213q4.181,2.414,8.363,4.827a6.049,6.049,0,0,1,.69.445.911.911,0,0,1,.266,1.3.969.969,0,0,1-1.328.326c-1.453-.769-2.862-1.616-4.277-2.452-1.521-.9-3.058-1.768-4.586-2.655a2.67,2.67,0,0,1-.465-.333.852.852,0,0,1-.23-1.011,1.052,1.052,0,0,1,.956-.66" transform="translate(0 -37.353)"/>
    <path id="Path_39" data-name="Path 39" d="M98.636,6.256q0,2.506,0,5.013a1.275,1.275,0,0,1-.283.917.944.944,0,0,1-1.628-.3,1.884,1.884,0,0,1-.11-.685q0-4.972,0-9.943a1.951,1.951,0,0,1,.042-.448.99.99,0,0,1,1.963.149c.023.341.011.685.012,1.027q0,2.137,0,4.273" transform="translate(-64.699 0)"/>
    <path id="Path_40" data-name="Path 40" d="M98.635,197.478q0,2.506,0,5.012a1.371,1.371,0,0,1-.2.824.945.945,0,0,1-.908.453.929.929,0,0,1-.8-.623,1.948,1.948,0,0,1-.114-.726q0-4.949,0-9.9a2.3,2.3,0,0,1,.016-.328,1.046,1.046,0,0,1,1.108-.936.987.987,0,0,1,.891,1.048c.007,1.725,0,3.451,0,5.176" transform="translate(-64.699 -128.07)"/>
    <path id="Path_41" data-name="Path 41" d="M42.024,191.708a1.027,1.027,0,0,1-.9-1.591c.405-.746.834-1.479,1.26-2.214q1.876-3.235,3.758-6.466a3.89,3.89,0,0,1,.266-.415.941.941,0,0,1,1.3-.287.931.931,0,0,1,.341,1.319c-.61,1.1-1.241,2.194-1.87,3.285q-1.64,2.848-3.287,5.692a1.129,1.129,0,0,1-.871.677" transform="translate(-27.435 -120.926)"/>
  </g>
</svg>
